<svg xmlns="http://www.w3.org/2000/svg" xmlns:xlink="http://www.w3.org/1999/xlink" version="1.1" id="Layer_1" viewBox="0 0 392.545 392.545" xml:space="preserve">
<path style="fill:#FFFFFF;" d="M175.788,190.061c-2.844-7.176,4.396-16.873,13.77-13.834l87.467,29.091h82.747  c6.012,0,10.925-4.848,10.925-10.796V32.711c0-5.947-4.848-10.796-10.925-10.796H32.725c-6.012,0-10.925,4.848-10.925,10.796  v161.875c0,5.947,4.848,10.796,10.925,10.796H180.83L175.788,190.061z"/>
<path style="fill:#FFC10D;" d="M203.392,203.83l10.15,30.319h41.438c6.012,0,10.925,4.848,10.925,10.925  c0,6.077-4.848,10.925-10.925,10.925h-34.133l4.784,14.545h18.489c6.012,0,10.925,4.849,10.925,10.925  c0,6.012-4.848,10.925-10.925,10.925h-11.184l19.653,58.699l16.679-38.723c4.267-9.374,15.321-7.564,17.713-3.426l49.455,49.39  l21.721-21.721l-49.455-49.325c-4.719-4.396-4.849-13.834,3.426-17.778l38.788-16.614L203.392,203.83z"/>
<rect x="43.65" y="43.572" style="fill:#56ACE0;" width="305.196" height="139.96"/>
<g>
<text xmlns="http://www.w3.org/2000/svg" x="50" y="135" font-family="Arial" font-size="75" fill="#194F82">Sign Out</text>
<path style="fill:#194F82;" d="M385.048,241.261l-42.408-14.093h17.131c18.036,0,32.711-14.675,32.711-32.582V32.711   C392.483,14.675,377.808,0,359.771,0H32.725C14.689,0,0.014,14.675,0.014,32.711v161.875c0,17.907,14.675,32.582,32.711,32.582   h155.41l52.752,157.867c4.396,11.055,17.261,8.663,20.299,0.84l21.657-50.23l45.834,45.64c4.267,4.267,11.119,4.267,15.386,0   l37.172-37.107c4.008-3.491,4.848-10.667,0-15.451l-45.77-45.64l50.295-21.527C394.422,259.103,395.392,244.234,385.048,241.261z    M175.788,190.19l5.107,15.321H32.725c-5.947-0.129-10.925-5.042-10.925-10.99V32.711c0-5.947,4.848-10.796,10.925-10.796h327.111   c6.012,0,10.925,4.848,10.925,10.796v161.875c0,5.947-4.848,10.796-10.925,10.796h-82.747l-87.467-29.026   C180.119,173.317,172.943,182.885,175.788,190.19z M312.127,269.446c-8.275,3.943-7.751,15.708-2.844,20.747l49.455,49.39   l-21.721,21.721l-49.455-49.39c-3.879-3.879-14.222-5.107-19.059,3.361l-16.679,38.723l-19.653-58.699h11.119   c6.012,0,10.925-4.848,10.925-10.925c0-6.012-4.848-10.925-10.925-10.925h-18.489l-4.784-14.545h34.133   c6.012,0,10.925-4.848,10.925-10.925c0-6.012-4.848-10.925-10.925-10.925h-41.438l-10.15-30.319l151.15,63.372L312.127,269.446z"/>
</g>
</svg>